<?xml version="1.0" encoding="UTF-8" standalone="no"?>
<svg
   xmlns:dc="http://purl.org/dc/elements/1.1/"
   xmlns:cc="http://creativecommons.org/ns#"
   xmlns:rdf="http://www.w3.org/1999/02/22-rdf-syntax-ns#"
   xmlns:svg="http://www.w3.org/2000/svg"
   xmlns="http://www.w3.org/2000/svg"
   xmlns:sodipodi="http://sodipodi.sourceforge.net/DTD/sodipodi-0.dtd"
   xmlns:inkscape="http://www.inkscape.org/namespaces/inkscape"
   width="64"
   height="64"
   viewBox="0 0 16.933333 16.933333"
   version="1.1"
   id="svg8"
   inkscape:version="0.92.3 (2405546, 2018-03-11)"
   sodipodi:docname="question.svg">
  <defs
     id="defs2" />
  <sodipodi:namedview
     id="base"
     pagecolor="#ffffff"
     bordercolor="#666666"
     borderopacity="1.0"
     inkscape:pageopacity="0.0"
     inkscape:pageshadow="2"
     inkscape:zoom="11.2"
     inkscape:cx="27.122855"
     inkscape:cy="31.960118"
     inkscape:document-units="mm"
     inkscape:current-layer="layer1"
     inkscape:document-rotation="0"
     showgrid="true"
     inkscape:pagecheckerboard="true"
     inkscape:showpageshadow="false"
     units="px"
     inkscape:window-width="1920"
     inkscape:window-height="1024"
     inkscape:window-x="-4"
     inkscape:window-y="-4"
     inkscape:window-maximized="1">
    <inkscape:grid
       type="xygrid"
       id="grid833"
       dotted="false"
       empspacing="8"
       spacingx="0.26458333" />
  </sodipodi:namedview>
  <metadata
     id="metadata5">
    <rdf:RDF>
      <cc:Work
         rdf:about="">
        <dc:format>image/svg+xml</dc:format>
        <dc:type
           rdf:resource="http://purl.org/dc/dcmitype/StillImage" />
        <dc:title></dc:title>
      </cc:Work>
    </rdf:RDF>
  </metadata>
  <g
     inkscape:label="Capa 1"
     inkscape:groupmode="layer"
     id="layer1">
    <g
       aria-label="?"
       style="font-style:normal;font-variant:normal;font-weight:bold;font-stretch:normal;font-size:17.08752823px;line-height:1.25;font-family:'Open Sans';-inkscape-font-specification:'Open Sans Bold';letter-spacing:0px;word-spacing:0px;fill:#000040;fill-opacity:1;stroke:none;stroke-width:0.42718819"
       id="text4800"
       transform="translate(-0.17448468,0.01771982)">
      <path
         d="M 7.047539,10.476422 V 9.8590018 q 0,-0.8009778 0.3420843,-1.3933677 0.3420843,-0.5923899 1.251528,-1.2598715 0.8760695,-0.625764 1.1514057,-1.0179094 0.28368,-0.3921454 0.28368,-0.8760696 0,-0.5423287 -0.4004893,-0.8260084 -0.4004889,-0.2836797 -1.1180316,-0.2836797 -1.251528,0 -2.8534837,0.817665 L 4.7947887,3.1925297 q 1.8606049,-1.04294 3.9464848,-1.04294 1.7187655,0 2.7283305,0.8260084 1.01791,0.8260085 1.01791,2.2026892 0,0.9177872 -0.417176,1.5852688 -0.417176,0.6674815 -1.585269,1.5018335 -0.8009778,0.5923899 -1.0179093,0.9011001 -0.208588,0.3087102 -0.208588,0.8093214 v 0.5006109 z m -0.2669926,2.853484 q 0,-0.700856 0.3754584,-1.059627 0.3754584,-0.358771 1.0930011,-0.358771 0.6925121,0 1.0679705,0.367115 0.3838019,0.367114 0.3838019,1.051283 0,0.659138 -0.3838019,1.04294 -0.3838019,0.375458 -1.0679705,0.375458 -0.7008557,0 -1.0846576,-0.367115 -0.3838019,-0.375458 -0.3838019,-1.051283 z"
         style="font-style:normal;font-variant:normal;font-weight:bold;font-stretch:normal;font-family:'Open Sans';-inkscape-font-specification:'Open Sans Bold';stroke-width:0.42718819;fill:#000040;fill-opacity:1"
         id="path4802"
         inkscape:connector-curvature="0" />
    </g>
  </g>
</svg>
